<svg xmlns="http://www.w3.org/2000/svg" xmlns:xlink="http://www.w3.org/1999/xlink" width="793.701" height="1122.52" viewBox="0 0 595.276 841.89"><path d="M92.921 149.463V92.976a2.835 2.835 0 0 1 2.835-2.835H524.43a2.835 2.835 0 0 1 2.835 2.835v56.487a2.835 2.835 0 0 1-2.835 2.835H95.756a2.835 2.835 0 0 1-2.835-2.835z" fill="#515151"/><path d="M92.921 149.463V92.976a2.835 2.835 0 0 1 2.835-2.835H524.43a2.835 2.835 0 0 1 2.835 2.835v56.487a2.835 2.835 0 0 1-2.835 2.835H95.756a2.835 2.835 0 0 1-2.835-2.835z" fill="#fffef8"/><symbol id="a"><path d="M.63.677H.019L0 .452h.025c.014.161.029.194.18.194.018 0 .044 0 .054-.002C.28.64.28.629.28.606V.079C.28.045.28.031.175.031h-.04V0c.041.003.143.003.189.003.046 0 .149 0 .19-.003v.031h-.04C.369.031.369.045.369.079v.527c0 .02 0 .034.018.038a.471.471 0 0 0 .057.002C.595.646.61.613.624.452h.025L.63.677z"/></symbol><symbol id="b"><path d="M.078.076C.078.031.067.031 0 .031V0l.113.003L.225 0v.031c-.067 0-.078 0-.078.045V.26c0 .104.071.16.135.16C.345.42.356.366.356.309V.076C.356.031.345.031.278.031V0l.113.003L.503 0v.031c-.052 0-.077 0-.078.03v.191c0 .086 0 .117-.031.153C.38.422.347.442.289.442A.158.158 0 0 1 .144.344v.35L0 .683V.652C.07.652.078.645.078.596v-.52z"/></symbol><symbol id="c"><path d="M.084.263c.006.149.09.174.124.174.103 0 .113-.135.113-.174H.084M.083.242h.279c.022 0 .025 0 .025.021 0 .099-.054.196-.179.196C.092.459 0 .356 0 .231 0 .097.105 0 .22 0a.17.17 0 0 1 .167.13c0 .01-.008.012-.013.012C.365.142.363.136.361.128.326.025.236.025.226.025c-.05 0-.09.03-.113.067-.03.048-.03.114-.03.15z"/></symbol><symbol id="d"><path d="M.139.332v.11L0 .431V.4C.07.4.078.393.078.344V.076C.078.031.067.031 0 .031V0l.114.003c.04 0 .087 0 .127-.003v.031H.22C.146.031.144.042.144.078v.154c0 .099.042.188.118.188L.273.419A.043.043 0 0 1 .25.38C.25.352.271.337.293.337c.018 0 .043.012.043.044S.305.442.262.442C.189.442.153.375.139.332z"/></symbol><symbol id="e"><path d="M.142.431v.116c0 .088.048.136.092.136.003 0 .018 0 .033-.007a.044.044 0 0 1-.03-.042C.237.611.253.591.28.591c.029 0 .044.02.044.044 0 .037-.037.07-.09.07A.155.155 0 0 1 .079.546V.431H0V.4h.079V.076C.079.031.068.031.001.031V0l.114.003c.04 0 .087 0 .127-.003v.031H.221C.147.031.145.042.145.078V.4h.114v.031H.142z"/></symbol><symbol id="f"><path d="M.443.225c0 .128-.1.234-.221.234C.097.459 0 .35 0 .225 0 .096.104 0 .221 0c.121 0 .222.098.222.225m-.221-.2a.13.13 0 0 0-.114.067C.083.136.083.197.083.233c0 .039 0 .093.024.137a.134.134 0 0 0 .114.067.131.131 0 0 0 .113-.065C.36.329.36.271.36.233c0-.036 0-.09-.022-.134A.129.129 0 0 0 .222.025z"/></symbol><symbol id="g"><path d="M.117.194c0 .064-.024.105-.064.105C.018.299 0 .272 0 .246S.017.193.053.193c.016 0 .028.006.038.014l.002.002C.094.209.095.208.095.194A.255.255 0 0 0 .023.022C.017.016.016.015.016.011.016.004.021 0 .026 0c.012 0 .091.079.091.194z"/></symbol><symbol id="h"><path d="M.601.347C.619.397.65.41.685.411v.031a.89.89 0 0 0-.166 0V.411C.555.41.577.392.577.363c0-.006 0-.008-.005-.021L.481.086.382.365C.378.377.377.379.377.384c0 .027.039.027.059.027v.031L.332.439C.302.439.273.44.243.442V.411C.28.411.296.409.306.396.311.39.322.36.329.341L.243.099.148.366C.143.378.143.38.143.384c0 .027.039.027.059.027v.031L.093.439 0 .442V.411C.05.411.062.408.074.376L.2.022C.205.008.208 0 .221 0c.013 0 .015.006.02.02l.101.283.102-.284C.448.008.451 0 .464 0c.013 0 .016.009.02.019l.117.328z"/></symbol><symbol id="i"><path d="M.291.087C.295.047.322.005.369.005.39.005.451.019.451.1v.056H.426V.1C.426.042.401.036.39.036c-.033 0-.037.045-.037.05v.2c0 .042 0 .081-.036.118A.191.191 0 0 1 .18.459C.098.459.029.412.029.346c0-.03.02-.047.046-.047.028 0 .046.02.046.046C.121.357.116.39.07.391c.027.035.076.046.108.046.049 0 .106-.039.106-.128V.272C.233.269.163.266.1.236.025.202 0 .15 0 .106 0 .025.097 0 .16 0c.066 0 .112.04.131.087M.284.251v-.1C.284.056.212.022.167.022c-.049 0-.09.035-.09.085 0 .055.042.138.207.144z"/></symbol><symbol id="j"><path d="M.397.344C.406.367.423.41.489.411v.031a.94.94 0 0 0-.162 0V.411C.364.41.375.387.375.368.375.359.373.355.369.344L.267.089.155.368C.149.381.149.383.149.385c0 .026.039.026.057.026v.031L.097.439C.07.439.03.44 0 .442V.411C.063.411.067.405.08.374L.224.019C.23.005.232 0 .245 0c.013 0 .017.009.021.019l.131.325z"/></symbol><use xlink:href="#a" transform="matrix(9.9626 0 0 -9.9626 96.269 100.049)"/><use xlink:href="#b" transform="matrix(9.9626 0 0 -9.9626 103.422 100.049)"/><use xlink:href="#c" transform="matrix(9.9626 0 0 -9.9626 108.921 100.159)"/><use xlink:href="#d" transform="matrix(9.9626 0 0 -9.9626 113.345 100.049)"/><use xlink:href="#c" transform="matrix(9.9626 0 0 -9.9626 117.25 100.159)"/><use xlink:href="#e" transform="matrix(9.9626 0 0 -9.9626 121.723 100.049)"/><use xlink:href="#f" transform="matrix(9.9626 0 0 -9.9626 124.722 100.159)"/><use xlink:href="#d" transform="matrix(9.9626 0 0 -9.9626 129.703 100.049)"/><use xlink:href="#c" transform="matrix(9.9626 0 0 -9.9626 133.608 100.159)"/><use xlink:href="#g" transform="matrix(9.9626 0 0 -9.9626 138.61 101.972)"/><use xlink:href="#h" transform="matrix(9.9626 0 0 -9.9626 144.02 100.159)"/><use xlink:href="#c" transform="matrix(9.9626 0 0 -9.9626 151.043 100.159)"/><use xlink:href="#b" transform="matrix(9.9626 0 0 -9.9626 158.824 100.049)"/><use xlink:href="#i" transform="matrix(9.9626 0 0 -9.9626 164.463 100.159)"/><use xlink:href="#j" transform="matrix(9.9626 0 0 -9.9626 168.936 100.159)"/><use xlink:href="#c" transform="matrix(9.9626 0 0 -9.9626 174.007 100.159)"/><symbol id="k"><path d="M.238.674A.124.124 0 0 1 .242.69c0 .005-.004.014-.016.014-.02 0-.103-.008-.128-.01C.09.693.076.692.076.671.076.657.09.657.102.657.15.657.15.65.15.642.15.635.148.629.146.62L.005.054 0 .032C0 .017.012 0 .034 0c.027 0 .04.02.046.042l.049.194C.2.229.257.206.257.154L.255.134C.251.119.251.114.251.103.251.032.309 0 .357 0c.097 0 .127.152.127.153 0 .013-.013.013-.016.013C.454.166.453.161.448.142.436.099.409.028.36.028.333.028.325.053.325.08c0 .017 0 .019.006.045a.14.14 0 0 1 .005.031c0 .089-.12.103-.162.106C.203.28.24.313.257.328c.051.048.101.095.157.095C.426.423.439.42.447.41A.058.058 0 0 1 .395.354c0-.022.017-.037.04-.037.027 0 .057.022.057.064 0 .033-.024.07-.077.07C.358.451.306.41.255.363A.4.4 0 0 0 .139.275l.099.399z"/></symbol><use xlink:href="#k" transform="matrix(6.9738 0 0 -6.9738 278.979 108.892)"/><symbol id="l"><path d="M.636 0c.016 0 .04 0 .04.024 0 .025-.023.025-.04.025H.04c-.016 0-.04 0-.04-.024C0 0 .023 0 .04 0h.596z"/></symbol><use xlink:href="#l" transform="matrix(6.9738 0 0 -6.9738 283.612 107.246)"/><symbol id="m"><path d="M.226.636c0 .027-.002.028-.03.028C.132.601.041.6 0 .6V.564c.024 0 .09 0 .145.028v-.51c0-.033 0-.046-.1-.046H.007V0l.178.004L.364 0v.036H.326c-.1 0-.1.013-.1.046v.554z"/></symbol><use xlink:href="#m" transform="matrix(6.9738 0 0 -6.9738 289.846 108.822)"/><symbol id="n"><path d="m1.21 0 .121.32h-.025c-.039-.104-.145-.172-.26-.202C1.025.113.927.087.735.087H.132l.509.597C.648.692.65.695.65.7c0 .002 0 .005-.007.015l-.466.637h.548c.134 0 .225-.014.234-.016a.566.566 0 0 0 .22-.075.323.323 0 0 0 .127-.142h.025L1.21 1.4H.028c-.023 0-.024-.001-.027-.007L0 1.36.529.636.011.029C.001.017.001.012.001.011.001 0 .01 0 .028 0H1.21z"/></symbol><use xlink:href="#n" transform="matrix(9.9626 0 0 -9.9626 279.119 125.759)"/><symbol id="o"><path d="M.439.829a.038.038 0 0 1-.04.038C.37.867.343.839.343.812c0-.016.012-.038.04-.038C.41.774.439.8.439.829M.227.155C.21.086.157.028.098.028a.105.105 0 0 0-.036.006.057.057 0 0 1 .034.051c0 .024-.019.037-.039.037A.059.059 0 0 1 0 .063C0 .025.039 0 .099 0c.06 0 .177.036.208.158l.09.358C.4.527.402.536.402.551c0 .055-.047.094-.107.094C.184.645.12.506.12.492.12.479.134.479.137.479c.012 0 .013.003.02.018.025.058.077.12.135.12C.317.617.326.6.326.568a.187.187 0 0 0-.003-.03L.227.155z"/></symbol><use xlink:href="#o" transform="matrix(6.9738 0 0 -6.9738 273.577 134.68)"/><symbol id="p"><path d="M.698.22c.015 0 .038 0 .038.025 0 .024-.024.024-.037.024H.037C.024.269 0 .269 0 .245 0 .22.023.22.038.22h.66M.699 0c.013 0 .037 0 .037.024 0 .025-.023.025-.038.025h-.66C.023.049 0 .049 0 .024 0 0 .024 0 .037 0h.662z"/></symbol><use xlink:href="#p" transform="matrix(6.9738 0 0 -6.9738 277.764 132.45)"/><use xlink:href="#k" transform="matrix(6.9738 0 0 -6.9738 283.915 133.328)"/><use xlink:href="#l" transform="matrix(6.9738 0 0 -6.9738 288.55 131.682)"/><symbol id="q"><path d="m.188.212.026.101a.244.244 0 0 0 .063.082c.011.008.038.028.081.028.01 0 .035-.001.055-.014A.059.059 0 0 1 .369.354c0-.022.017-.037.04-.037s.056.019.056.061C.465.43.41.451.359.451.307.451.262.43.218.38.2.441.139.451.115.451.078.451.053.428.037.4A.364.364 0 0 1 0 .298C0 .285.014.285.017.285c.014 0 .015.003.022.03.015.061.034.108.073.108.026 0 .033-.022.033-.049A.442.442 0 0 0 .129.291a3.78 3.78 0 0 1-.022-.09L.075.073a.378.378 0 0 1-.01-.041C.065.01.083 0 .099 0c.015 0 .035.009.043.029l.019.075.027.108z"/></symbol><use xlink:href="#q" transform="matrix(6.9738 0 0 -6.9738 294.35 133.328)"/><symbol id="r"><path d="M.04.964C.04.982.04 1 .02 1S0 .982 0 .964V.036C0 .018 0 0 .02 0s.02.018.02.036v.928z"/></symbol><use xlink:href="#r" transform="matrix(9.9626 0 0 -9.9626 300.783 123.766)"/><symbol id="s"><path d="m.67.233.005.014c0 .001 0 .011-.012.011C.654.258.652.252.65.246.585.098.548.031.377.031H.231L.209.032C.199.033.196.034.196.042c0 .003 0 .005.005.023l.068.273h.099C.453.338.453.317.453.292c0-.007 0-.019-.007-.049A.03.03 0 0 1 .443.232c0-.005.004-.011.013-.011.008 0 .011.005.015.02l.057.234c0 .006-.005.011-.012.011C.507.486.505.48.502.468.481.392.463.369.371.369H.277l.06.241c.009.035.01.039.054.039h.141C.654.649.684.62.684.538c0-.024 0-.026-.004-.053L.679.467c0-.005.003-.012.012-.012.011 0 .012.006.014.025l.02.173C.728.68.723.68.698.68H.193c-.02 0-.03 0-.03-.02 0-.011.009-.011.028-.011.037 0 .065 0 .065-.018 0-.004 0-.006-.005-.024L.119.078C.109.039.107.031.028.031.011.031 0 .031 0 .012 0 0 .009 0 .028 0h.519C.57 0 .571.001.578.017L.67.233z"/></symbol><use xlink:href="#s" transform="matrix(9.9626 0 0 -9.9626 302.743 121.275)"/><use xlink:href="#o" transform="matrix(6.9738 0 0 -6.9738 309.718 124.192)"/><use xlink:href="#r" transform="matrix(9.9626 0 0 -9.9626 315.102 123.766)"/><symbol id="t"><path d="M.592.731c.012.006.019.011.019.022a.02.02 0 0 1-.02.02.055.055 0 0 1-.018-.006L.02.506C.003.498 0 .491 0 .483S.004.468.02.461l.553-.26C.586.194.588.194.591.194a.02.02 0 0 1 .02.02c0 .013-.009.017-.02.022L.067.483l.525.248M.573.007C.586 0 .588 0 .591 0a.02.02 0 0 1 .02.02c0 .013-.009.017-.02.022l-.552.26C.026.309.024.309.02.309A.02.02 0 0 1 0 .289C0 .281.004.274.02.267l.553-.26z"/></symbol><use xlink:href="#t" transform="matrix(9.9626 0 0 -9.9626 320.278 122.64)"/><symbol id="u"><path d="M.059.07C.056.055.05.032.05.027.05.009.064 0 .079 0a.04.04 0 0 1 .037.028l.04.158.032.13c.004.013.032.06.056.082.008.007.037.033.08.033C.35.431.365.419.366.419.336.414.314.39.314.364c0-.016.011-.035.038-.035s.055.023.055.059c0 .035-.032.065-.083.065C.259.453.215.404.196.376a.09.09 0 0 1-.091.077C.059.453.04.414.031.396A.42.42 0 0 1 0 .299c0-.01.01-.01.012-.01.01 0 .011.001.017.023.017.071.037.119.073.119.017 0 .031-.008.031-.046C.133.364.13.353.117.301L.059.07z"/></symbol><use xlink:href="#u" transform="matrix(9.9626 0 0 -9.9626 331.816 114.645)"/><path stroke-width=".398" stroke-miterlimit="10" fill="none" stroke="#000" d="M331.162 118.784h5.5"/><symbol id="v"><path d="M.232.694c0 .001 0 .011-.013.011C.196.705.123.697.097.695.089.694.078.693.078.675c0-.012.009-.012.024-.012.048 0 .05-.007.05-.017L.149.626.004.05C0 .036 0 .034 0 .028 0 .005.02 0 .029 0a.04.04 0 0 1 .034.021C.068.03.113.215.119.24.153.237.235.221.235.155c0-.007 0-.011-.003-.021C.23.122.228.11.228.099.228.04.268 0 .32 0c.03 0 .057.016.079.053a.362.362 0 0 1 .036.101c0 .01-.009.01-.012.01C.413.164.412.16.409.146.389.073.366.022.322.022.303.022.29.033.29.069c0 .017.004.04.008.056a.103.103 0 0 1 .004.031C.302.221.239.25.154.261c.031.018.063.05.086.074.048.053.094.096.143.096L.392.43C.404.428.405.428.413.422L.417.418A.057.057 0 0 1 .36.364C.36.348.371.329.398.329c.026 0 .055.022.055.061C.453.42.43.453.385.453.357.453.311.445.239.365A.349.349 0 0 0 .128.272l.104.422z"/></symbol><symbol id="w"><path d="M.059.07C.056.055.05.032.05.027.05.009.064 0 .079 0a.04.04 0 0 1 .037.028 2.1 2.1 0 0 1 .019.074l.022.09.017.067.013.05C.202.34.255.431.35.431c.045 0 .054-.037.054-.07A.34.34 0 0 0 .389.278L.361.162.341.086C.337.066.328.032.328.027.328.009.342 0 .357 0c.031 0 .037.025.045.057l.06.241c.003.013.056.133.165.133.043 0 .054-.034.054-.07A.889.889 0 0 0 .619.137.136.136 0 0 1 .606.082.08.08 0 0 1 .688 0c.094 0 .131.146.131.154 0 .01-.009.01-.012.01-.01 0-.01-.003-.015-.018C.777.093.745.022.69.022c-.017 0-.024.01-.024.033a.19.19 0 0 0 .018.071c.019.052.061.163.061.22 0 .065-.04.107-.115.107C.555.453.504.409.467.356a.1.1 0 0 1-.032.071.127.127 0 0 1-.082.026.193.193 0 0 1-.156-.087.09.09 0 0 1-.092.087C.059.453.04.414.031.396A.436.436 0 0 1 0 .299c0-.01.01-.01.012-.01.01 0 .011.001.017.023.017.071.037.119.073.119.016 0 .031-.008.031-.046C.133.364.13.353.117.301L.059.07z"/></symbol><use xlink:href="#v" transform="matrix(9.9626 0 0 -9.9626 331.71 128.219)"/><use xlink:href="#w" transform="matrix(9.9626 0 0 -9.9626 338.147 121.385)"/><path stroke-width=".398" stroke-miterlimit="10" fill="none" stroke="#000" d="M517.21 149.309v-6.725M517.409 142.783h5.978M517.409 149.11h5.978M523.586 149.309v-6.725"/><symbol id="x"><path d="M.077.077.183.18c.156.138.216.192.216.292 0 .114-.09.194-.212.194A.185.185 0 0 1 0 .485C0 .429.05.429.053.429c.017 0 .052.012.052.053a.05.05 0 0 1-.053.052L.039.533a.144.144 0 0 0 .135.102C.265.635.308.554.308.472c0-.08-.05-.159-.105-.221L.011.037C0 .026 0 .024 0 0h.371l.028.174H.374C.369.144.362.1.352.085.345.077.279.077.257.077h-.18z"/></symbol><use xlink:href="#x" transform="matrix(9.9626 0 0 -9.9626 295.645 781.636)"/></svg>